#!OML:ASF H:\Dans Jumps\Project 1\Capture day 1\Session 1\subject.ASF
:FULLY-SPECIFIED
:DEGREES
303
root 0.172065 19.6755 -8.98515 13.8885 1.12813 -0.388867
lowerback 1.32685 -0.411309 -2.65164
upperback -0.379763 -0.582125 1.22312
thorax -1.09433 -0.268991 2.75564
lowerneck -9.36349 -0.77365 -1.96724
upperneck 22.4385 -1.10117 1.70313
head 8.53529 -0.512307 0.794264
rclavicle 5.71506e-016 4.27387e-015
rhumerus -28.2496 13.5246 -72.3688
rradius 58.9428
rwrist 14.4732
rhand -23.0438 -23.9539
rfingers 7.12502
rthumb 3.40076 -53.9065
lclavicle 5.71506e-016 4.27387e-015
lhumerus -22.49 -26.5296 69.5969
lradius 67.3842
lwrist 38.4414
lhand -28.237 -11.3867
lfingers 7.12502
lthumb -1.61478 18.5869
rfemur -9.76568 -8.25135 17.3908
rtibia 24.0531
rfoot 20.7775 -11.0348
rtoes 11.1554
lfemur -11.1456 8.77726 -15.2233
ltibia 23.9111
lfoot 27.3102 -1.13171
ltoes -9.13321
304
root 0.174654 20.0056 -8.73772 13.8845 1.31627 -0.452422
lowerback -0.333998 -0.477058 -2.54003
upperback -0.297769 -0.630148 1.22199
thorax -0.0767837 -0.310512 2.67586
lowerneck -8.74433 -0.788964 -1.83668
upperneck 22.7656 -1.12292 1.53886
head 8.53076 -0.530695 0.717468
rclavicle 2.23633e-015 -5.56597e-015
rhumerus -29.1689 14.0485 -72.2226
rradius 58.8465
rwrist 14.6451
rhand -22.9173 -23.8549
rfingers 7.12502
rthumb 3.52297 -53.8056
lclavicle 2.23633e-015 -5.56597e-015
lhumerus -22.91 -26.7615 69.5772
lradius 67.2042
lwrist 38.593
lhand -27.758 -11.2543
lfingers 7.12502
lthumb -1.15215 18.7223
rfemur -9.02663 -8.03058 17.4887
rtibia 23.1463
rfoot 22.3411 -12.7418
rtoes 15.248
lfemur -10.6227 8.30941 -15.0618
ltibia 23.1669
lfoot 28.9367 0.110697
ltoes -6.02011
305
root 0.175911 20.3296 -8.50671 13.9356 1.55177 -0.525792
lowerback -1.83436 -0.542398 -2.40861
upperback -0.206308 -0.685609 1.20564
thorax 0.85989 -0.353092 2.57014
lowerneck -8.20728 -0.81008 -1.70997
upperneck 23.0004 -1.16582 1.45365
head 8.51076 -0.550754 0.665421
rclavicle 5.25537e-015 -1.09332e-014
rhumerus -29.9741 14.3186 -72.1456
rradius 58.6013
rwrist 14.8982
rhand -22.7437 -23.8546
rfingers 7.12502
rthumb 3.69062 -53.8024
lclavicle 5.25537e-015 -1.09332e-014
lhumerus -23.2531 -26.9095 69.5901
lradius 66.9509
lwrist 38.5311
lhand -27.3258 -11.0644
lfingers 7.12502
lthumb -0.734786 18.9141
rfemur -8.67255 -8.05458 17.6947
rtibia 22.9448
rfoot 23.136 -13.6642
rtoes 18.2351
lfemur -10.558 8.24203 -14.9616
ltibia 23.2116
lfoot 29.683 0.964647
ltoes -3.6959
306
root 0.175463 20.6437 -8.29511 13.9838 1.82307 -0.587206
lowerback -3.07849 -0.610625 -2.30272
upperback -0.0980174 -0.753292 1.18304
thorax 1.67106 -0.398806 2.4731
lowerneck -7.77425 -0.83022 -1.6202
upperneck 23.1905 -1.21789 1.45699
head 8.49563 -0.568913 0.648211
rclavicle 3.10601e-015 -7.50412e-015
rhumerus -30.617 14.3157 -72.1321
rradius 58.1729
rwrist 15.1724
rhand -22.5948 -23.9064
rfingers 7.12502
rthumb 3.83442 -53.8516
lclavicle 3.10601e-015 -7.50412e-015
lhumerus -23.4767 -26.9232 69.6575
lradius 66.553
lwrist 38.2453
lhand -26.9647 -10.827
lfingers 7.12502
lthumb -0.385985 19.1524
rfemur -8.6252 -8.2276 17.9623
rtibia 23.3851
rfoot 23.6127 -13.8884
rtoes 20.2255
lfemur -10.8323 8.47475 -14.9191
ltibia 23.8875
lfoot 30.0321 1.23052
ltoes -2.14271
307
root 0.173801 20.9451 -8.10448 13.9649 2.10147 -0.626845
lowerback -3.97539 -0.682179 -2.24767
upperback 0.0306237 -0.832533 1.16601
thorax 2.31018 -0.447673 2.41133
lowerneck -7.43431 -0.838536 -1.60607
upperneck 23.3804 -1.25989 1.55117
head 8.49852 -0.579471 0.675116
rclavicle 7.01958e-015 3.42904e-015
rhumerus -31.0848 14.0616 -72.1662
rradius 57.5522
rwrist 15.4297
rhand -22.4573 -24.0426
rfingers 7.12502
rthumb 3.96715 -53.9854
lclavicle 7.01958e-015 3.42904e-015
lhumerus -23.5848 -26.7429 69.7998
lradius 65.9829
lwrist 37.7741
lhand -26.6707 -10.5592
lfingers 7.12502
lthumb -0.101995 19.4205
rfemur -8.80598 -8.46912 18.2444
rtibia 24.3871
rfoot 24.1356 -13.5434
rtoes 21.2505
lfemur -11.3197 8.87181 -14.9271
ltibia 25.0416
lfoot 30.3364 0.864109
ltoes -1.14794
308
root 0.171369 21.2342 -7.93484 13.8319 2.3582 -0.641961
lowerback -4.45761 -0.753417 -2.25431
upperback 0.179403 -0.917356 1.16374
thorax 2.7393 -0.497265 2.40161
lowerneck -7.21228 -0.8281 -1.66806
upperneck 23.6295 -1.27658 1.70534
head 8.54395 -0.578274 0.737405
rclavicle -2.50841e-014 -4.87022e-015
rhumerus -31.3773 13.5846 -72.228
rradius 56.7361
rwrist 15.6583
rhand -22.4026 -24.1804
rfingers 7.12502
rthumb 4.02001 -54.1222
lclavicle -2.50841e-014 -4.87022e-015
lhumerus -23.5992 -26.3333 70.0334
lradius 65.2389
lwrist 37.1903
lhand -26.4321 -10.293
lfingers 7.12502
lthumb 0.12837 19.6867
rfemur -9.14774 -8.72016 18.5075
rtibia 25.8574
rfoot 24.8989 -12.852
rtoes 22.1345
lfemur -11.9212 9.32401 -14.9788
ltibia 26.5539
lfoot 30.7178 0.00175603
ltoes -0.230212
309
root 0.169199 21.5116 -7.7846 13.5634 2.58069 -0.6377
lowerback -4.51776 -0.817064 -2.30056
upperback 0.354237 -0.99846 1.17459
thorax 2.95932 -0.543316 2.43148
lowerneck -7.10298 -0.800708 -1.7586
upperneck 23.939 -1.26351 1.85302
head 8.6307 -0.565614 0.805268
rclavicle 9.50439e-016 8.34896e-015
rhumerus -31.5058 12.9062 -72.2991
rradius 55.7409
rwrist 15.858
rhand -22.3914 -24.3365
rfingers 7.12502
rthumb 4.03079 -54.2781
lclavicle 9.50439e-016 8.34896e-015
lhumerus -23.514 -25.7086 70.3355
lradius 64.3356
lwrist 36.5959
lhand -26.2336 -10.0611
lfingers 7.12502
lthumb 0.320142 19.9184
rfemur -9.58674 -9.00416 18.7324
rtibia 27.6905
rfoot 25.753 -11.9176
rtoes 23.1085
lfemur -12.5679 9.77033 -15.0634
ltibia 28.3244
lfoot 31.053 -1.11296
ltoes 0.670808
310
root 0.167944 21.7784 -7.65137 13.1557 2.75396 -0.629972
lowerback -4.17289 -0.860863 -2.35205
upperback 0.557891 -1.06121 1.19407
thorax 2.98073 -0.578282 2.47902
lowerneck -7.07519 -0.762872 -1.85357
upperneck 24.2728 -1.22741 1.96878
head 8.74069 -0.545268 0.865521
rclavicle -6.29278e-015 -9.93923e-017
rhumerus -31.5166 12.0556 -72.368
rradius 54.6257
rwrist 16.0603
rhand -22.3977 -24.512
rfingers 7.12502
rthumb 4.0247 -54.4537
lclavicle -6.29278e-015 -9.93923e-017
lhumerus -23.3517 -24.8943 70.6845
lradius 63.3189
lwrist 36.0622
lhand -26.0696 -9.87899
lfingers 7.12502
lthumb 0.478517 20.1002
rfemur -10.0785 -9.3075 18.9191
rtibia 29.7806
rfoot 26.4791 -10.7926
rtoes 23.8374
lfemur -13.2107 10.136 -15.158
ltibia 30.259
lfoot 31.2071 -2.19312
ltoes 1.20192
